HIERARCHY
ROOT Hips
{
	OFFSET	0.00	0.00	0.00
	CHANNELS 6 Xposition Yposition Zposition Zrotation Xrotation Yrotation
	JOINT LeftUpLeg
	{
		OFFSET	 0.126116	-0.014019	-0.065224
		CHANNELS 3 Zrotation Xrotation Yrotation
		JOINT LeftLeg
		{
			OFFSET	 0.000000	 0.000000	 0.569914
			CHANNELS 3 Zrotation Xrotation Yrotation
			JOINT LeftFoot
			{
				OFFSET	 0.000000	 0.000000	 0.544423
				CHANNELS 3 Zrotation Xrotation Yrotation
				JOINT LeftToeBase
				{
					OFFSET	 0.000000	 0.000000	 0.207117
					CHANNELS 3 Zrotation Xrotation Yrotation
					End Site
					{
						OFFSET	 0.000000	 0.000000	 0.207117
					}
				}
			}
		}
	}
	JOINT RightUpLeg
	{
		OFFSET	-0.124023	-0.008373	-0.065224
		CHANNELS 3 Zrotation Xrotation Yrotation
		JOINT RightLeg
		{
			OFFSET	 0.000000	 0.000000	 0.570047
			CHANNELS 3 Zrotation Xrotation Yrotation
			JOINT RightFoot
			{
				OFFSET	 0.000000	 0.000000	 0.544354
				CHANNELS 3 Zrotation Xrotation Yrotation
				JOINT RightToeBase
				{
					OFFSET	 0.000000	 0.000000	 0.207540
					CHANNELS 3 Zrotation Xrotation Yrotation
					End Site
					{
						OFFSET	 0.000000	 0.000000	 0.207540
					}
				}
			}
		}
	}
	JOINT Spine
	{
		OFFSET	 0.000184	-0.007763	 0.117403
		CHANNELS 3 Zrotation Xrotation Yrotation
		JOINT Spine1
		{
			OFFSET	 0.000000	 0.000000	 0.137269
			CHANNELS 3 Zrotation Xrotation Yrotation
			JOINT Spine2
			{
				OFFSET	 0.000000	 0.000000	 0.156879
				CHANNELS 3 Zrotation Xrotation Yrotation
				JOINT LeftShoulder
				{
					OFFSET	 0.080501	-0.002496	 0.160144
					CHANNELS 3 Zrotation Xrotation Yrotation
					JOINT LeftArm
					{
						OFFSET	 0.000000	 0.000000	 0.164363
						CHANNELS 3 Zrotation Xrotation Yrotation
						JOINT LeftForeArm
						{
							OFFSET	 0.000000	 0.000000	 0.364576
							CHANNELS 3 Zrotation Xrotation Yrotation
							JOINT LeftHand
							{
								OFFSET	 0.000000	 0.000000	 0.360812
								CHANNELS 3 Zrotation Xrotation Yrotation
								JOINT LeftHandIndex1
								{
									OFFSET	 0.000000	 0.000000	 0.086006
									CHANNELS 3 Zrotation Xrotation Yrotation
									JOINT LeftHandIndex2
									{
										OFFSET	 0.000000	 0.000000	 0.047236
										CHANNELS 3 Zrotation Xrotation Yrotation
										JOINT LeftHandIndex3
										{
											OFFSET	-0.004284	-0.000551	 0.038166
											CHANNELS 3 Zrotation Xrotation Yrotation
											End Site
											{
												OFFSET	-0.004284	-0.000551	 0.038166
											}
										}
									}
								}
							}
						}
					}
				}
				JOINT Neck
				{
					OFFSET	 0.000000	 0.000000	 0.176489
					CHANNELS 3 Zrotation Xrotation Yrotation
					JOINT Head
					{
						OFFSET	 0.000000	-0.001747	 0.077940
						CHANNELS 3 Zrotation Xrotation Yrotation
						End Site
						{
							OFFSET	 0.000000	-0.001747	 0.077940
						}
					}
				}
				JOINT RightShoulder
				{
					OFFSET	-0.080363	 0.000306	 0.159706
					CHANNELS 3 Zrotation Xrotation Yrotation
					JOINT RightArm
					{
						OFFSET	 0.000000	 0.000000	 0.164196
						CHANNELS 3 Zrotation Xrotation Yrotation
						JOINT RightForeArm
						{
							OFFSET	 0.000000	 0.000000	 0.365611
							CHANNELS 3 Zrotation Xrotation Yrotation
							JOINT RightHand
							{
								OFFSET	 0.000000	 0.000000	 0.360648
								CHANNELS 3 Zrotation Xrotation Yrotation
								JOINT RightHandIndex1
								{
									OFFSET	 0.000000	 0.000000	 0.069977
									CHANNELS 3 Zrotation Xrotation Yrotation
									JOINT RightHandIndex2
									{
										OFFSET	 0.000000	 0.000000	 0.052305
										CHANNELS 3 Zrotation Xrotation Yrotation
										JOINT RightHandIndex3
										{
											OFFSET	 0.009002	-0.000782	 0.042196
											CHANNELS 3 Zrotation Xrotation Yrotation
											End Site
											{
												OFFSET	 0.009002	-0.000782	 0.042196
											}
										}
									}
								}
							}
						}
					}
				}
			}
		}
	}
}
MOTION
Frames:    11
Frame Time: 0.03333334
-0.000076	 0.015032	 1.224814	-0.005130	 0.005321	 0.078470	 9.346707	-13.485860	 177.286100	 0.822359	-34.919100	-2.301661	-25.875400	 81.682440	 20.385640	-2.385833	 28.452760	 0.000004	-9.506584	-13.351050	-177.395300	-0.825976	-34.814420	 2.250544	 25.752970	 81.826390	-20.399570	 2.384658	 28.388730	 0.000004	-14.973970	 3.638808	 0.245703	-0.862450	 0.484401	-0.494976	 2.611707	-0.595761	 0.493741	-91.776190	 78.527470	-180.000000	 48.680050	 35.269390	-51.588230	-25.570840	 2.142708	-6.189913	-30.559110	 3.809818	-4.122560	-2.635965	 4.993658	 6.788941	-5.165319	 0.784187	 3.516649	-5.225038	 0.466231	 0.424329	-0.000002	-3.783157	-0.089647	 2.595238	 6.880002	-0.156044	 89.782100	 78.203900	 180.000000	 5.934329	 13.190960	 99.509670	-16.960090	 1.745468	 9.587146	 5.934837	 2.943087	-6.215528	 6.112037	 4.509576	-0.364401	 4.968462	 1.518543	-9.347576	 5.168945	 0.703820	 2.021906
-0.000071	 0.014778	 1.225061	-0.005310	 0.005487	 0.084480	 9.347748	-13.444590	 177.277900	 0.826337	-34.837790	-2.294706	-25.741530	 81.648750	 20.250010	-2.385833	 28.452760	 0.000004	-9.510014	-13.291430	-177.396200	-0.830512	-34.719410	 2.242589	 25.637580	 81.794320	-20.283030	 2.384658	 28.388730	 0.000004	-14.653610	 3.614750	 0.218027	-0.944108	 0.555372	-0.458403	 2.857272	-0.672796	 0.504695	-91.776120	 78.527450	 179.999900	 48.683920	 35.284930	-51.563870	-25.688910	 2.167330	-6.224387	-30.586900	 3.836254	-4.119308	-2.635965	 4.993658	 6.788941	-5.165319	 0.784187	 3.516649	-5.225038	 0.466231	 0.424329	-0.000002	-3.783157	-0.089647	 2.839285	 6.831035	-0.169504	 89.782130	 78.203890	 180.000000	 5.940638	 13.254330	 99.498340	-16.898070	 1.773398	 9.680831	 5.970228	 2.925186	-6.238434	 6.112037	 4.509576	-0.364401	 4.968462	 1.518543	-9.347576	 5.168945	 0.703820	 2.021906
-0.000065	 0.014525	 1.225292	-0.005450	 0.005582	 0.090013	 9.348723	-13.405780	 177.270200	 0.830035	-34.761880	-2.288224	-25.618150	 81.617490	 20.124990	-2.385833	 28.452760	 0.000004	-9.513227	-13.234730	-177.396800	-0.834756	-34.630190	 2.235132	 25.532510	 81.764690	-20.176900	 2.384658	 28.388730	 0.000004	-14.299840	 3.596133	 0.229167	-1.022506	 0.619301	-0.493390	 3.094332	-0.748042	 0.548588	-91.776130	 78.527430	 179.999900	 48.695220	 35.305500	-51.548550	-25.803520	 2.192244	-6.258500	-30.616150	 3.862813	-4.116198	-2.635965	 4.993658	 6.788941	-5.165319	 0.784187	 3.516649	-5.225038	 0.466231	 0.424329	-0.000002	-3.783157	-0.089647	 3.074230	 6.778897	-0.182132	 89.782050	 78.203870	-180.000000	 5.935093	 13.323210	 99.482300	-16.843160	 1.800025	 9.775269	 6.009713	 2.901716	-6.262604	 6.112037	 4.509576	-0.364401	 4.968462	 1.518543	-9.347576	 5.168945	 0.703820	 2.021906
-0.000057	 0.014267	 1.225511	-0.005521	 0.005619	 0.095288	 9.349615	-13.368410	 177.262900	 0.833563	-34.689260	-2.282035	-25.501620	 81.587770	 20.006900	-2.385833	 28.452760	 0.000004	-9.516367	-13.179420	-177.397200	-0.838823	-34.544320	 2.227970	 25.434640	 81.736760	-20.078030	 2.384658	 28.388730	 0.000004	-13.901420	 3.575936	 0.240108	-1.099956	 0.688967	-0.527336	 3.328489	-0.830143	 0.592573	-91.776280	 78.527490	-179.999900	 48.716800	 35.331100	-51.544900	-25.915260	 2.217422	-6.292703	-30.648130	 3.889970	-4.113084	-2.635965	 4.993658	 6.788941	-5.165319	 0.784187	 3.516649	-5.225038	 0.466231	 0.424329	-0.000002	-3.783157	-0.089647	 3.306002	 6.722460	-0.194235	 89.782100	 78.203900	 180.000000	 5.905901	 13.400090	 99.451310	-16.795310	 1.825681	 9.883515	 6.055006	 2.871014	-6.288848	 6.112037	 4.509576	-0.364401	 4.968462	 1.518543	-9.347576	 5.168945	 0.703820	 2.021906
-0.000046	 0.014010	 1.225715	-0.005547	 0.005605	 0.100132	 9.350430	-13.333320	 177.256100	 0.836834	-34.621580	-2.276277	-25.394330	 81.560150	 19.898130	-2.385833	 28.452760	 0.000004	-9.519330	-13.126910	-177.397400	-0.842615	-34.463780	 2.221270	 25.345770	 81.711040	-19.988260	 2.384658	 28.388730	 0.000004	-13.469470	 3.554837	 0.250499	-1.173960	 0.761900	-0.559031	 3.552276	-0.916310	 0.635179	-91.776150	 78.527450	 180.000000	 48.750250	 35.360850	-51.557090	-26.020300	 2.239637	-6.322950	-30.681890	 3.917009	-4.110231	-2.635965	 4.993658	 6.788941	-5.165319	 0.784187	 3.516649	-5.225038	 0.466231	 0.424329	-0.000002	-3.783157	-0.089647	 3.527185	 6.663711	-0.205422	 89.782210	 78.203900	 179.999900	 5.841703	 13.474950	 99.395940	-16.754350	 1.849424	 10.011520	 6.101768	 2.842876	-6.314363	 6.112037	 4.509576	-0.364401	 4.968462	 1.518543	-9.347576	 5.168945	 0.703820	 2.021906
-0.000027	 0.013728	 1.225908	-0.005521	 0.005525	 0.104988	 9.351129	-13.299540	 177.249400	 0.839934	-34.557340	-2.270819	-25.294540	 81.534340	 19.796960	-2.385833	 28.452760	 0.000004	-9.522264	-13.074590	-177.397500	-0.846269	-34.386040	 2.214809	 25.266440	 81.687520	-19.908110	 2.384658	 28.388730	 0.000004	-12.956910	 3.530735	 0.261285	-1.251400	 0.845551	-0.591413	 3.786426	-1.015312	 0.680511	-91.776240	 78.527490	-180.000000	 48.799310	 35.398800	-51.585970	-26.127960	 2.263704	-6.355209	-30.720890	 3.946462	-4.107220	-2.635965	 4.993658	 6.788941	-5.165319	 0.784187	 3.516649	-5.225038	 0.466231	 0.424329	-0.000002	-3.783157	-0.089647	 3.758210	 6.596842	-0.216684	 89.782110	 78.203890	 180.000000	 5.729146	 13.566990	 99.470510	-16.712390	 1.878435	 9.863599	 6.164827	 2.832166	-6.339901	 6.112037	 4.509576	-0.364401	 4.968462	 1.518543	-9.347576	 5.168945	 0.703820	 2.021906
-0.000001	 0.013455	 1.226037	-0.005455	 0.005402	 0.109229	 9.351333	-13.276160	 177.243900	 0.841982	-34.514740	-2.267204	-25.232020	 81.518140	 19.733520	-2.385833	 28.452760	 0.000004	-9.524546	-13.034100	-177.397800	-0.848841	-34.331070	 2.210254	 25.223700	 81.673620	-19.864990	 2.384658	 28.388730	 0.000004	-12.433070	 3.506993	 0.270888	-1.321425	 0.928122	-0.619956	 3.998193	-1.113285	 0.722243	-91.776180	 78.527470	 180.000000	 48.855450	 35.445260	-51.629920	-26.222560	 2.284115	-6.382545	-30.759710	 3.974303	-4.104579	-2.635965	 4.993658	 6.788941	-5.165319	 0.784187	 3.516649	-5.225038	 0.466231	 0.424329	-0.000002	-3.783157	-0.089647	 3.966747	 6.531282	-0.226438	 89.782160	 78.203870	 179.999900	 5.580917	 13.638230	 100.011200	-16.649030	 1.919580	 8.803333	 6.225593	 2.823193	-6.363667	 6.112037	 4.509576	-0.364401	 4.968462	 1.518543	-9.347576	 5.168945	 0.703820	 2.021906
 0.000028	 0.013180	 1.226140	-0.005343	 0.005235	 0.113157	 9.351335	-13.256860	 177.238800	 0.843609	-34.480830	-2.264331	-25.184700	 81.505830	 19.685480	-2.385833	 28.452760	 0.000004	-9.526588	-12.997890	-177.398000	-0.850996	-34.284940	 2.206433	 25.196210	 81.663700	-19.837300	 2.384658	 28.388730	 0.000004	-11.868040	 3.482244	 0.279968	-1.388765	 1.014373	-0.646590	 4.201854	-1.215861	 0.763077	-91.776090	 78.527450	 179.999900	 48.928420	 35.493200	-51.691950	-26.309340	 2.305069	-6.410032	-30.800740	 4.002201	-4.102074	-2.635965	 4.993658	 6.788941	-5.165319	 0.784187	 3.516649	-5.225038	 0.466231	 0.424329	-0.000002	-3.783157	-0.089647	 4.166891	 6.463339	-0.235393	 89.782160	 78.203870	 179.999900	 5.264520	 13.634110	 101.151700	-16.548940	 1.976105	 6.541327	 6.089747	 2.897520	-6.382653	 6.112037	 4.509576	-0.364401	 4.968462	 1.518543	-9.347576	 5.168945	 0.703820	 2.021906
 0.000055	 0.012931	 1.226238	-0.005202	 0.005049	 0.116469	 9.351409	-13.238380	 177.234500	 0.845179	-34.448150	-2.261562	-25.138510	 81.493840	 19.638580	-2.385833	 28.452760	 0.000004	-9.528458	-12.964350	-177.397900	-0.853015	-34.241540	 2.202842	 25.168180	 81.653950	-19.809030	 2.384658	 28.388730	 0.000004	-11.320780	 3.459000	 0.287717	-1.447406	 1.095433	-0.669126	 4.379208	-1.312500	 0.799298	-91.776090	 78.527470	 179.999900	 49.002120	 35.545200	-51.761520	-26.381030	 2.320985	-6.431077	-30.839900	 4.027462	-4.099966	-2.635965	 4.993658	 6.788941	-5.165319	 0.784187	 3.516649	-5.225038	 0.466231	 0.424329	-0.000002	-3.783157	-0.089647	 4.340796	 6.399918	-0.242814	 89.782170	 78.203890	 179.999900	 5.152044	 13.661230	 101.107800	-16.534970	 1.991951	 6.561357	 5.894064	 2.996312	-6.397625	 6.112037	 4.509576	-0.364401	 4.968462	 1.518543	-9.347576	 5.168945	 0.703820	 2.021906
 0.000083	 0.012653	 1.226393	-0.005011	 0.004797	 0.119967	 9.351934	-13.210040	 177.229400	 0.847679	-34.395860	-2.257139	-25.060260	 81.473320	 19.559210	-2.385833	 28.452760	 0.000004	-9.530952	-12.918980	-177.397200	-0.856012	-34.177110	 2.197516	 25.110000	 81.636110	-19.750250	 2.384658	 28.388730	 0.000004	-10.651480	 3.431440	 0.296061	-1.511909	 1.191720	-0.693147	 4.574294	-1.427580	 0.839959	-91.776240	 78.527450	-180.000000	 49.097090	 35.610550	-51.855760	-26.454980	 2.336931	-6.451983	-30.887220	 4.056499	-4.097682	-2.635965	 4.993658	 6.788941	-5.165319	 0.784187	 3.516649	-5.225038	 0.466231	 0.424329	-0.000002	-3.783157	-0.089647	 4.531701	 6.325270	-0.250540	 89.782040	 78.203870	-180.000000	 4.953387	 13.723570	 100.293800	-16.539860	 1.987458	 8.001345	 5.628904	 3.112182	-6.409442	 6.112037	 4.509576	-0.364401	 4.968462	 1.518543	-9.347576	 5.168945	 0.703820	 2.021906
 0.000102	 0.012373	 1.226655	-0.004779	 0.004490	 0.123343	 9.353469	-13.163580	 177.223600	 0.851959	-34.306100	-2.249555	-24.919160	 81.435780	 19.416150	-2.385833	 28.452760	 0.000004	-9.534422	-12.854690	-177.395300	-0.860751	-34.074630	 2.189067	 24.988780	 81.601440	-19.627620	 2.384658	 28.388730	 0.000004	-9.896086	 3.401307	 0.304224	-1.576867	 1.297128	-0.716358	 4.770762	-1.553920	 0.881835	-91.776250	 78.527420	-180.000000	 49.208450	 35.684720	-51.968390	-26.520160	 2.352702	-6.472584	-30.940000	 4.087032	-4.095461	-2.635965	 4.993658	 6.788941	-5.165319	 0.784187	 3.516649	-5.225038	 0.466231	 0.424329	-0.000002	-3.783157	-0.089647	 4.723404	 6.244282	-0.257800	 89.782160	 78.203900	 179.999900	 4.505391	 13.856500	 98.462170	-16.460610	 1.966591	 11.296710	 5.170571	 3.243175	-6.400563	 6.112037	 4.509576	-0.364401	 4.968462	 1.518543	-9.347576	 5.168945	 0.703820	 2.021906
